<?xml version="1.0" encoding="utf-8"?>
<!-- Generator: Adobe Illustrator 26.2.1, SVG Export Plug-In . SVG Version: 6.00 Build 0)  -->
<svg version="1.1" id="Layer_1" xmlns="http://www.w3.org/2000/svg" xmlns:xlink="http://www.w3.org/1999/xlink" x="0px" y="0px"
	 viewBox="0 0 50.2 49.8" style="enable-background:new 0 0 50.2 49.8;" xml:space="preserve">
<style type="text/css">
	.st0{fill:none;stroke:#798FFF;stroke-width:6;}
	.st1{fill:#A074FF;}
</style>
<circle class="st0" cx="30.7" cy="30" r="16.2"/>
<path class="st1" d="M10.2,5.4C9,4.2,7.1,4.2,6,5.4C4.8,6.5,4.8,8.4,6,9.6L10.2,5.4z M30.7,33c1.7,0,3-1.3,3-3V3c0-1.7-1.3-3-3-3
	c-1.7,0-3,1.3-3,3v24h-24c-1.7,0-3,1.3-3,3c0,1.7,1.3,3,3,3H30.7z M6,9.6l22.6,22.6l4.2-4.2L10.2,5.4L6,9.6z"/>
</svg>
